<?xml version="1.0" standalone="no"?>
<!DOCTYPE svg PUBLIC "-//W3C//DTD SVG 20010904//EN"
 "http://www.w3.org/TR/2001/REC-SVG-20010904/DTD/svg10.dtd">
<svg version="1.0" xmlns="http://www.w3.org/2000/svg"
 width="360.000000pt" height="360.000000pt" viewBox="0 0 360.000000 360.000000"
 preserveAspectRatio="xMidYMid meet">
<metadata>
Created by potrace 1.15, written by Peter Selinger 2001-2017
</metadata>
<g transform="translate(0.000000,360.000000) scale(0.100000,-0.100000)"
fill="#000000" stroke="none">
<path d="M1735 3163 c-109 -15 -235 -67 -298 -123 -19 -16 -40 -30 -46 -30 -6
0 -31 -20 -56 -44 -31 -31 -46 -56 -50 -83 -4 -21 -13 -52 -21 -69 -7 -17 -16
-56 -20 -88 -8 -67 15 -401 27 -389 4 4 20 70 34 147 26 142 51 214 86 252
l19 20 58 -27 c216 -103 457 -115 679 -34 79 28 79 28 112 -59 20 -53 71 -269
71 -302 1 -18 1 -18 12 0 15 26 23 334 11 407 -8 49 -7 60 10 83 l20 27 -38
55 c-85 124 -217 216 -356 249 -59 14 -183 18 -254 8z"/>
<path d="M1199 1412 c-36 -15 -72 -32 -80 -38 -8 -6 -59 -26 -114 -44 -281
-92 -431 -222 -480 -418 -14 -56 -35 -299 -35 -419 l0 -63 1310 0 1310 0 0 53
c0 119 -21 375 -36 431 -50 194 -201 326 -479 416 -55 18 -107 38 -115 45 -18
15 -159 70 -164 64 -2 -2 -117 -228 -257 -501 -140 -274 -256 -498 -259 -498
-3 0 -120 225 -260 500 -140 275 -259 500 -265 499 -5 0 -40 -12 -76 -27z"/>
</g>
</svg>
